<?xml version="1.0" encoding="UTF-8"?>
<svg xmlns="http://www.w3.org/2000/svg" xmlns:xlink="http://www.w3.org/1999/xlink" width="90pt" height="60pt" viewBox="0 0 90 60" version="1.1">
<g id="surface1">
<path style=" stroke:none;fill-rule:nonzero;fill:rgb(13.72549%,12.156863%,12.54902%);fill-opacity:1;" d="M 55.285156 33.894531 L 53.378906 33.894531 L 53.378906 26.117188 L 59.507812 26.125 C 59.507812 26.125 60.632812 26.082031 61.34375 26.785156 C 61.34375 26.785156 62.074219 27.394531 62.074219 28.882812 L 62.074219 33.894531 L 60.171875 33.894531 L 60.171875 28.753906 C 60.171875 28.753906 60.195312 28.230469 60.019531 28.042969 C 60.019531 28.042969 59.859375 27.84375 59.558594 27.84375 L 55.28125 27.84375 Z M 63.398438 33.894531 L 63.398438 26.121094 L 71.046875 26.121094 L 71.046875 27.851562 L 65.292969 27.851562 L 65.292969 29.171875 L 69.292969 29.171875 L 69.292969 30.839844 L 65.292969 30.839844 L 65.292969 32.167969 L 71.085938 32.167969 L 71.085938 33.894531 Z M 50.058594 33.894531 L 50.058594 26.121094 L 51.957031 26.121094 L 51.957031 33.894531 Z M 74.265625 27.359375 L 74.265625 27.097656 Z M 73.777344 33.894531 L 73.777344 27.851562 L 71.984375 27.851562 L 71.984375 26.121094 L 79.109375 26.121094 L 79.109375 27.851562 L 75.675781 27.851562 L 75.675781 33.894531 Z M 44.277344 27.359375 L 44.277344 27.097656 Z M 43.785156 33.894531 L 43.785156 27.851562 L 41.996094 27.851562 L 41.996094 26.121094 L 49.117188 26.121094 L 49.117188 27.851562 L 45.683594 27.851562 L 45.683594 33.894531 Z M 38.0625 29.167969 C 38.523438 29.167969 38.800781 29.171875 38.914062 29.101562 C 38.914062 29.101562 39.109375 28.996094 39.113281 28.761719 L 39.113281 28.253906 C 39.113281 28.023438 38.914062 27.914062 38.914062 27.914062 C 38.765625 27.835938 38.515625 27.851562 37.921875 27.851562 L 34.222656 27.851562 L 34.222656 29.167969 L 38.144531 29.167969 Z M 39.085938 33.894531 L 39.085938 31.242188 C 39.085938 31.003906 38.886719 30.902344 38.886719 30.902344 C 38.792969 30.847656 38.527344 30.835938 38.128906 30.835938 L 38.222656 30.835938 L 34.222656 30.835938 L 34.222656 33.894531 L 32.324219 33.894531 L 32.324219 26.121094 L 38.25 26.121094 C 39.273438 26.125 39.980469 26.273438 40.464844 26.746094 C 40.945312 27.234375 41.007812 27.871094 41.007812 28.535156 L 41.007812 29.089844 C 41.015625 29.652344 40.71875 30.164062 40.367188 30.464844 L 40.4375 30.5 C 40.582031 30.570312 40.660156 30.667969 40.660156 30.667969 C 40.929688 31.011719 40.925781 31.304688 40.925781 31.667969 L 40.925781 33.894531 Z M 10.382812 26.121094 L 10.382812 33.894531 L 12.28125 33.894531 L 12.28125 30.839844 L 18.03125 30.839844 L 18.03125 29.171875 L 12.28125 29.171875 L 12.28125 27.847656 L 18.964844 27.847656 L 18.964844 26.121094 Z M 78.457031 32.519531 L 78.457031 32.875 L 78.789062 32.875 C 78.878906 32.875 78.96875 32.851562 78.980469 32.71875 C 79 32.539062 78.871094 32.519531 78.789062 32.519531 Z M 78.324219 32.402344 L 78.789062 32.402344 C 78.949219 32.402344 79.101562 32.433594 79.117188 32.664062 C 79.121094 32.800781 79.082031 32.847656 78.980469 32.925781 C 79.085938 32.992188 79.089844 33.007812 79.105469 33.1875 C 79.117188 33.324219 79.097656 33.347656 79.15625 33.4375 L 78.996094 33.4375 L 78.976562 33.304688 C 78.953125 33.183594 79.011719 32.992188 78.796875 32.992188 L 78.457031 32.992188 L 78.457031 33.4375 L 78.324219 33.4375 Z M 78.671875 32.117188 C 78.214844 32.117188 77.84375 32.488281 77.84375 32.949219 C 77.84375 33.40625 78.214844 33.78125 78.675781 33.777344 C 79.132812 33.777344 79.507812 33.40625 79.507812 32.945312 C 79.507812 32.488281 79.132812 32.117188 78.671875 32.117188 M 78.675781 33.886719 C 78.15625 33.886719 77.734375 33.464844 77.734375 32.945312 C 77.734375 32.429688 78.15625 32.007812 78.675781 32.007812 C 79.191406 32.007812 79.617188 32.429688 79.617188 32.945312 C 79.617188 33.464844 79.191406 33.882812 78.675781 33.886719 "/>
<path style=" stroke:none;fill-rule:nonzero;fill:rgb(93.333333%,18.039216%,14.117647%);fill-opacity:1;" d="M 29.71875 33.96875 C 30.335938 33.757812 30.816406 33.050781 30.929688 32.15625 L 30.929688 31.898438 L 27.769531 31.898438 L 27.769531 33.96875 Z M 30.929688 28.101562 L 30.929688 27.867188 C 30.808594 26.9375 30.292969 26.203125 29.636719 26.03125 L 27.769531 26.03125 L 27.769531 28.101562 Z M 19.804688 31.898438 L 19.804688 32.15625 C 19.917969 33.046875 20.398438 33.757812 21.015625 33.96875 L 22.957031 33.96875 L 22.957031 31.898438 Z M 21.097656 26.03125 C 20.441406 26.203125 19.925781 26.9375 19.804688 27.871094 L 19.804688 28.101562 L 22.957031 28.101562 L 22.957031 26.03125 Z M 30.929688 28.964844 L 27.769531 28.964844 L 27.769531 31.035156 L 30.929688 31.035156 Z M 23.816406 33.96875 L 26.910156 33.96875 L 26.910156 31.898438 L 23.816406 31.898438 Z M 26.910156 26.03125 L 23.816406 26.03125 L 23.816406 28.101562 L 26.910156 28.101562 Z M 19.804688 31.035156 L 22.957031 31.035156 L 22.957031 28.964844 L 19.804688 28.964844 Z M 19.804688 31.035156 "/>
</g>
</svg>
