<?xml version="1.0" encoding="UTF-8"?>
<svg xmlns="http://www.w3.org/2000/svg" xmlns:xlink="http://www.w3.org/1999/xlink" width="60pt" height="60pt" viewBox="0 0 60 60" version="1.1">
<g id="surface1">
<path style=" stroke:none;fill-rule:evenodd;fill:rgb(100%,100%,100%);fill-opacity:1;" d="M 14.441406 13.875 C 15.980469 15.125 16.558594 15.03125 19.453125 14.835938 L 46.714844 13.199219 C 47.296875 13.199219 46.8125 12.621094 46.621094 12.527344 L 42.09375 9.253906 C 41.226562 8.578125 40.070312 7.808594 37.855469 8 L 11.453125 9.925781 C 10.492188 10.019531 10.300781 10.5 10.683594 10.886719 Z M 14.441406 13.875 "/>
<path style=" stroke:none;fill-rule:evenodd;fill:rgb(100%,100%,100%);fill-opacity:1;" d="M 16.078125 20.226562 L 16.078125 48.914062 C 16.078125 50.457031 16.847656 51.035156 18.582031 50.9375 L 48.546875 49.203125 C 50.28125 49.109375 50.476562 48.046875 50.476562 46.796875 L 50.476562 18.300781 C 50.476562 17.050781 49.992188 16.375 48.933594 16.472656 L 17.621094 18.300781 C 16.464844 18.398438 16.078125 18.976562 16.078125 20.226562 Z M 16.078125 20.226562 "/>
<path style=" stroke:none;fill-rule:evenodd;fill:rgb(25.882353%,25.882353%,25.882353%);fill-opacity:1;" d="M 14.441406 13.875 C 15.980469 15.125 16.558594 15.03125 19.453125 14.835938 L 46.714844 13.199219 C 47.296875 13.199219 46.8125 12.621094 46.621094 12.527344 L 42.09375 9.253906 C 41.226562 8.578125 40.070312 7.808594 37.855469 8 L 11.453125 9.925781 C 10.492188 10.019531 10.300781 10.5 10.683594 10.886719 Z M 16.078125 20.226562 L 16.078125 48.914062 C 16.078125 50.457031 16.847656 51.035156 18.582031 50.9375 L 48.546875 49.203125 C 50.28125 49.109375 50.476562 48.046875 50.476562 46.796875 L 50.476562 18.300781 C 50.476562 17.050781 49.992188 16.375 48.933594 16.472656 L 17.621094 18.300781 C 16.464844 18.398438 16.078125 18.976562 16.078125 20.226562 Z M 45.65625 21.765625 C 45.851562 22.632812 45.65625 23.5 44.789062 23.597656 L 43.34375 23.886719 L 43.34375 45.0625 C 42.089844 45.738281 40.933594 46.121094 39.972656 46.121094 C 38.429688 46.121094 38.042969 45.640625 36.890625 44.199219 L 27.445312 29.371094 L 27.445312 43.714844 L 30.433594 44.390625 C 30.433594 44.390625 30.433594 46.121094 28.023438 46.121094 L 21.375 46.507812 C 21.183594 46.121094 21.375 45.160156 22.050781 44.96875 L 23.785156 44.484375 L 23.785156 25.523438 L 21.375 25.328125 C 21.183594 24.460938 21.664062 23.210938 23.015625 23.113281 L 30.144531 22.632812 L 39.972656 37.652344 L 39.972656 24.367188 L 37.464844 24.078125 C 37.273438 23.019531 38.042969 22.25 39.007812 22.152344 Z M 9.234375 7.328125 L 36.695312 5.304688 C 40.070312 5.015625 40.9375 5.210938 43.054688 6.75 L 51.820312 12.910156 C 53.265625 13.96875 53.75 14.257812 53.75 15.414062 L 53.75 49.203125 C 53.75 51.320312 52.980469 52.574219 50.28125 52.765625 L 18.390625 54.691406 C 16.367188 54.785156 15.402344 54.496094 14.34375 53.148438 L 7.886719 44.773438 C 6.730469 43.234375 6.25 42.078125 6.25 40.730469 L 6.25 10.695312 C 6.25 8.964844 7.019531 7.519531 9.234375 7.328125 Z M 9.234375 7.328125 "/>
</g>
</svg>
