<?xml version="1.0" encoding="UTF-8"?>
<svg xmlns="http://www.w3.org/2000/svg" xmlns:xlink="http://www.w3.org/1999/xlink" width="60pt" height="60pt" viewBox="0 0 60 60" version="1.1">
<g id="surface1">
<path style=" stroke:none;fill-rule:nonzero;fill:rgb(0%,0%,0%);fill-opacity:1;" d="M 48.914062 12.765625 C 48.714844 12.765625 48.519531 12.769531 48.324219 12.78125 C 48.136719 12.78125 47.953125 12.78125 47.769531 12.796875 C 46.503906 13.074219 45.089844 13.414062 44.175781 14.382812 C 42.796875 15.960938 43.070312 18.609375 44.679688 19.9375 C 46.890625 21.914062 48.980469 24.078125 50.40625 26.707031 C 51.964844 29.121094 52.234375 32.355469 50.804688 34.890625 C 49.230469 38.101562 46.085938 40.34375 42.65625 41.179688 C 43.605469 43.675781 43.746094 46.929688 43.746094 46.929688 C 43.746094 46.929688 46.640625 46.128906 47.847656 45.585938 C 49.210938 44.929688 50.640625 44.320312 51.722656 43.230469 C 52.808594 42.492188 53.597656 41.421875 54.308594 40.324219 C 55.109375 39.042969 55.839844 37.703125 56.464844 36.335938 C 56.859375 35.105469 57.332031 33.886719 57.398438 32.574219 C 57.617188 30.660156 57.472656 28.722656 56.976562 26.863281 C 56.03125 24.324219 54.253906 22.175781 52.152344 20.503906 C 54.082031 20.484375 56.019531 20.578125 57.945312 20.453125 C 59.023438 20.453125 61.078125 19.40625 59.304688 18.570312 C 58.34375 18.269531 57.351562 18.796875 56.40625 18.84375 C 55.617188 18.496094 53.972656 18.03125 54.59375 16.902344 C 55.3125 15.40625 54.210938 14.199219 52.867188 13.710938 C 51.65625 13.015625 50.289062 12.761719 48.914062 12.765625 Z M 32.863281 14.414062 C 29.914062 14.5 26.855469 14.859375 24.300781 16.472656 C 21.667969 18.210938 19.53125 20.664062 17.917969 23.363281 C 17.996094 23.355469 18.066406 23.351562 18.09375 23.371094 C 18.136719 23.394531 18.371094 23.4375 18.625 23.460938 C 19.128906 23.523438 22.441406 24.460938 22.601562 24.589844 C 22.800781 24.75 24.242188 25.449219 24.378906 25.449219 C 24.613281 25.449219 24.519531 25.304688 24.203125 25.164062 C 23.535156 24.878906 22.953125 24.523438 23.132812 24.523438 C 23.460938 24.523438 24.03125 24.773438 24.488281 25.121094 C 24.984375 25.507812 26.320312 26.078125 26.933594 26.171875 C 27.609375 26.265625 29.339844 26.929688 29.785156 27.246094 C 30.003906 27.417969 30.335938 27.628906 30.5 27.71875 C 30.632812 27.785156 30.753906 27.867188 30.863281 27.96875 C 30.953125 28.113281 31.058594 28.066406 31.011719 27.894531 C 30.988281 27.8125 30.84375 27.671875 30.6875 27.585938 C 30.527344 27.5 30.417969 27.386719 30.433594 27.335938 C 30.453125 27.28125 30.097656 27.011719 29.636719 26.746094 C 29.179688 26.476562 28.785156 26.179688 28.761719 26.09375 C 28.726562 26.019531 28.675781 25.953125 28.640625 25.953125 C 28.519531 25.890625 28.410156 25.804688 28.316406 25.703125 C 28.164062 25.558594 28.0625 25.449219 28.085938 25.449219 C 28.144531 25.449219 28.828125 25.886719 28.886719 25.960938 C 28.976562 26.070312 29.484375 26.296875 29.550781 26.253906 C 29.59375 26.230469 29.683594 26.28125 29.769531 26.375 C 29.96875 26.59375 30.011719 26.585938 30.140625 26.324219 L 30.238281 26.105469 L 30.414062 26.328125 C 30.550781 26.5 30.609375 26.53125 30.660156 26.441406 C 30.703125 26.378906 30.726562 26.3125 30.734375 26.238281 C 30.734375 26.15625 30.308594 25.9375 29.683594 25.710938 C 29.523438 25.640625 29.367188 25.550781 29.222656 25.449219 C 28.902344 25.199219 29.199219 25.230469 29.828125 25.523438 C 30.121094 25.648438 30.585938 25.828125 30.863281 25.902344 C 31.140625 25.976562 31.488281 26.097656 31.621094 26.15625 C 32.359375 26.492188 32.578125 26.601562 32.898438 26.8125 C 33.054688 26.929688 33.234375 27.011719 33.425781 27.046875 C 33.519531 27.046875 33.621094 27.105469 33.648438 27.171875 C 33.679688 27.238281 33.734375 27.28125 33.765625 27.257812 C 33.800781 27.234375 33.964844 27.308594 34.136719 27.425781 C 34.300781 27.535156 34.4375 27.601562 34.4375 27.566406 C 34.4375 27.542969 34.496094 27.601562 34.574219 27.703125 C 34.671875 27.84375 34.734375 27.871094 34.808594 27.8125 C 34.882812 27.746094 34.957031 27.769531 35.070312 27.886719 C 35.152344 27.980469 35.269531 28.046875 35.335938 28.039062 C 35.4375 28.015625 36.203125 28.78125 36.203125 28.90625 C 36.203125 28.933594 36.363281 29.066406 36.566406 29.199219 C 36.714844 29.292969 36.851562 29.40625 36.976562 29.53125 C 37.011719 29.570312 37.078125 29.613281 37.121094 29.613281 C 37.296875 29.691406 37.460938 29.789062 37.609375 29.90625 C 37.753906 30.015625 37.902344 30.113281 38.054688 30.203125 C 38.164062 30.210938 38.878906 30.757812 39.105469 31.011719 C 39.417969 31.34375 39.25 31.253906 38.636719 30.757812 C 37.800781 30.074219 37.296875 29.859375 37.296875 30.175781 C 37.296875 30.261719 37.238281 30.351562 37.171875 30.386719 C 37.054688 30.429688 37.054688 30.453125 37.179688 30.585938 C 37.347656 30.773438 37.53125 30.808594 37.378906 30.621094 C 37.253906 30.472656 37.371094 30.460938 37.558594 30.605469 C 37.632812 30.664062 37.675781 30.746094 37.65625 30.804688 C 37.632812 30.863281 37.683594 30.890625 37.785156 30.859375 C 37.953125 30.816406 38.390625 31.152344 38.390625 31.320312 C 38.390625 31.363281 38.914062 31.738281 39.550781 32.144531 C 40.6875 32.871094 41.226562 33.269531 40.890625 33.15625 C 40.800781 33.128906 40.710938 33.113281 40.621094 33.105469 C 40.558594 33.105469 40.390625 33.011719 40.257812 32.890625 C 40.023438 32.699219 39.671875 32.675781 39.789062 32.859375 C 39.8125 32.902344 39.761719 32.933594 39.675781 32.933594 C 39.578125 32.941406 39.617188 32.984375 39.800781 33.085938 C 40.003906 33.195312 40.046875 33.261719 39.980469 33.328125 C 39.914062 33.398438 39.9375 33.449219 40.078125 33.53125 C 40.191406 33.582031 40.316406 33.683594 40.351562 33.742188 C 40.386719 33.808594 40.476562 33.859375 40.546875 33.859375 C 40.613281 33.859375 40.703125 33.953125 40.761719 34.070312 C 40.8125 34.179688 40.878906 34.253906 40.921875 34.238281 C 40.957031 34.214844 41.007812 34.265625 41.039062 34.359375 C 41.066406 34.441406 41.410156 34.835938 41.796875 35.234375 C 42.191406 35.628906 42.511719 35.996094 42.511719 36.039062 C 42.511719 36.113281 41.957031 36.273438 41.824219 36.234375 C 41.78125 36.226562 41.753906 36.25 41.753906 36.300781 C 41.753906 36.351562 41.679688 36.351562 41.570312 36.308594 C 41.460938 36.265625 41.378906 36.207031 41.386719 36.164062 C 41.390625 36.046875 41.234375 35.914062 41.023438 35.863281 C 40.746094 35.789062 40.789062 35.902344 41.15625 36.238281 C 41.46875 36.515625 41.476562 36.542969 41.308594 36.585938 C 41.289062 36.589844 41.269531 36.59375 41.253906 36.59375 C 41.332031 36.683594 41.410156 36.773438 41.484375 36.871094 C 43.371094 35.371094 45.636719 33.78125 45.925781 31.179688 C 46.3125 27.972656 43.710938 25.488281 41.292969 23.828125 C 39.8125 22.75 38.792969 21.101562 38.09375 19.433594 C 37.378906 17.90625 38.078125 14.726562 38.078125 14.726562 C 38.078125 14.726562 34.53125 14.445312 32.863281 14.417969 Z M 5.988281 21.441406 C 5.753906 21.460938 5.519531 21.476562 5.285156 21.484375 C 4.703125 21.515625 4.683594 21.515625 4.726562 21.71875 C 4.753906 21.851562 4.878906 21.980469 5.113281 22.085938 C 5.453125 22.257812 7.554688 22.84375 8.609375 23.074219 C 8.90625 23.140625 9.1875 23.222656 9.238281 23.265625 C 9.398438 23.390625 9.859375 23.441406 9.890625 23.339844 C 9.917969 23.273438 10.050781 23.300781 10.304688 23.417969 C 10.609375 23.558594 11.40625 23.78125 11.769531 23.8125 C 11.820312 23.820312 11.878906 23.886719 11.914062 23.972656 C 11.945312 24.046875 12.085938 24.140625 12.234375 24.171875 C 12.375 24.199219 12.476562 24.265625 12.457031 24.316406 C 12.417969 24.433594 11.960938 24.386719 11.878906 24.257812 C 11.828125 24.183594 11.796875 24.183594 11.742188 24.265625 C 11.683594 24.351562 11.585938 24.351562 11.238281 24.273438 C 10.996094 24.214844 10.800781 24.140625 10.800781 24.097656 C 10.800781 23.960938 10.640625 24.039062 10.59375 24.199219 C 10.558594 24.289062 10.5 24.347656 10.457031 24.316406 C 10.414062 24.289062 10.398438 24.238281 10.421875 24.207031 C 10.441406 24.164062 10.15625 23.980469 9.765625 23.796875 C 9.21875 23.515625 8.75 23.382812 7.488281 23.105469 C 6.949219 22.980469 6.410156 22.878906 5.863281 22.800781 C 5.835938 22.828125 5.964844 22.921875 6.148438 23.019531 C 6.421875 23.171875 6.433594 23.1875 6.242188 23.144531 C 5.871094 23.070312 5.964844 23.171875 6.476562 23.398438 C 6.804688 23.542969 6.941406 23.640625 6.90625 23.726562 C 6.859375 23.851562 7.023438 24.046875 7.148438 24.023438 C 7.328125 23.988281 7.425781 24.039062 7.453125 24.171875 C 7.496094 24.40625 7.175781 24.535156 6.789062 24.441406 C 6.597656 24.398438 6.40625 24.359375 6.214844 24.324219 C 6.074219 24.308594 5.695312 24.234375 5.375 24.175781 C 5.070312 24.109375 4.761719 24.066406 4.449219 24.039062 C 4.210938 24.023438 3.976562 23.992188 3.746094 23.9375 C 3.457031 23.871094 3.359375 23.878906 3.308594 23.960938 C 3.265625 24.03125 3.085938 24.0625 2.851562 24.054688 C 2.640625 24.046875 2.476562 24.078125 2.476562 24.113281 C 2.476562 24.15625 2.792969 24.1875 3.191406 24.1875 C 3.886719 24.1875 4.074219 24.222656 4.074219 24.359375 C 4.074219 24.484375 3.769531 24.515625 3.515625 24.40625 C 3.324219 24.332031 3.238281 24.332031 3.085938 24.425781 C 2.925781 24.535156 2.878906 24.523438 2.691406 24.40625 C 2.5 24.28125 2.46875 24.28125 2.421875 24.390625 C 2.371094 24.53125 2.097656 24.523438 1.835938 24.382812 C 1.691406 24.308594 1.71875 24.28125 2.035156 24.234375 C 2.464844 24.164062 2.457031 24.132812 2.003906 24.074219 C 1.777344 24.046875 1.609375 24.074219 1.496094 24.15625 C 1.347656 24.265625 1.347656 24.273438 1.488281 24.28125 C 1.726562 24.28125 1.566406 24.449219 1.328125 24.449219 C 1.199219 24.445312 1.074219 24.417969 0.953125 24.367188 C 0.824219 24.300781 0.792969 24.300781 0.808594 24.386719 C 0.835938 24.503906 0.53125 24.515625 0.246094 24.410156 C 0.152344 24.367188 0.101562 24.367188 0.136719 24.410156 C 0.171875 24.441406 0.136719 24.515625 0.0625 24.578125 C -0.046875 24.664062 -0.0234375 24.675781 0.253906 24.675781 C 0.441406 24.675781 0.726562 24.703125 0.902344 24.738281 C 1.085938 24.769531 1.210938 24.761719 1.210938 24.710938 C 1.210938 24.601562 1.800781 24.652344 2.128906 24.796875 C 2.316406 24.878906 2.390625 24.953125 2.355469 25.058594 C 2.328125 25.175781 2.351562 25.191406 2.457031 25.132812 C 2.558594 25.074219 2.640625 25.089844 2.746094 25.183594 C 2.871094 25.292969 2.929688 25.300781 3.140625 25.207031 C 3.28125 25.148438 3.433594 25.140625 3.5 25.183594 C 3.558594 25.21875 3.878906 25.257812 4.199219 25.265625 C 4.878906 25.285156 5.132812 25.335938 5.300781 25.46875 C 5.367188 25.515625 5.503906 25.578125 5.613281 25.585938 C 5.941406 25.628906 6.210938 25.699219 6.460938 25.789062 C 6.78125 25.914062 8.210938 26.234375 8.253906 26.191406 C 8.269531 26.175781 8.109375 26.109375 7.902344 26.050781 C 7.691406 25.988281 7.523438 25.90625 7.523438 25.855469 C 7.523438 25.773438 7.765625 25.804688 8.386719 26 C 8.742188 26.109375 8.800781 26.117188 8.84375 26.007812 C 8.867188 25.941406 8.933594 25.882812 9.003906 25.882812 C 9.070312 25.882812 9.121094 25.824219 9.121094 25.746094 C 9.121094 25.675781 9.085938 25.644531 9.035156 25.671875 C 8.996094 25.695312 8.953125 25.675781 8.953125 25.636719 C 8.953125 25.585938 9.011719 25.546875 9.078125 25.546875 C 9.152344 25.546875 9.203125 25.621094 9.203125 25.746094 C 9.203125 25.914062 9.253906 25.949219 9.550781 25.996094 C 9.742188 26.03125 9.921875 26.03125 9.945312 26.003906 C 9.96875 25.980469 9.925781 25.960938 9.851562 25.960938 C 9.777344 25.960938 9.710938 25.921875 9.710938 25.878906 C 9.710938 25.769531 9.691406 25.769531 10.449219 25.953125 C 10.800781 26.046875 11.324219 26.140625 11.601562 26.175781 C 12.417969 26.25 12.6875 26.332031 13.828125 26.835938 C 14.390625 27.09375 15 27.34375 15.523438 27.546875 C 15.53125 27.457031 15.546875 27.371094 15.558594 27.28125 C 15.246094 27.164062 14.957031 27.015625 14.941406 26.941406 C 14.914062 26.839844 14.957031 26.828125 15.167969 26.898438 L 15.609375 27.027344 C 15.566406 26.738281 16.621094 27.078125 16.742188 26.746094 C 16.8125 26.558594 15.015625 26.042969 15.082031 25.816406 C 15.148438 25.59375 16.050781 25.972656 16.246094 25.753906 C 16.394531 25.585938 15.792969 25.222656 15.945312 25.023438 C 16.046875 24.890625 16.976562 25.617188 17.113281 25.488281 C 17.289062 25.316406 16.082031 24.644531 16.214844 24.40625 C 16.316406 24.226562 16.925781 24.695312 17.144531 24.550781 C 17.484375 24.324219 17.046875 24.441406 17.308594 24.125 C 17.359375 24.066406 17.4375 24.046875 17.535156 24.046875 C 17.550781 24.003906 17.574219 23.96875 17.59375 23.925781 L 17.738281 23.933594 C 17.917969 23.925781 17.960938 23.90625 17.867188 23.859375 C 17.804688 23.828125 17.738281 23.804688 17.667969 23.789062 C 17.679688 23.773438 17.6875 23.757812 17.695312 23.738281 L 17.699219 23.734375 C 17.140625 23.355469 16.574219 22.984375 16 22.625 L 15.890625 22.59375 C 15.347656 22.421875 14.78125 22.328125 14.210938 22.304688 C 13.378906 22.261719 13.378906 22.261719 13.828125 22.371094 C 14.925781 22.625 16.269531 23.074219 16.269531 23.171875 C 16.269531 23.238281 16.210938 23.265625 16.128906 23.238281 C 15.128906 22.933594 12.675781 22.265625 12.578125 22.265625 C 12.496094 22.261719 12.414062 22.234375 12.351562 22.179688 C 12.300781 22.128906 12.003906 22.0625 11.675781 22.019531 C 11.359375 21.980469 11.046875 21.921875 10.734375 21.84375 C 10.542969 21.78125 10.363281 21.75 10.339844 21.773438 C 10.246094 21.859375 10.398438 22.078125 10.574219 22.128906 C 10.71875 22.164062 10.734375 22.195312 10.660156 22.273438 C 10.585938 22.347656 10.523438 22.347656 10.414062 22.253906 C 10.339844 22.1875 10.257812 22.144531 10.238281 22.164062 C 10.164062 22.230469 9.71875 22.070312 9.675781 21.960938 C 9.640625 21.867188 9.566406 21.851562 9.449219 21.886719 C 9.351562 21.917969 9.246094 21.902344 9.210938 21.851562 C 9.136719 21.734375 7.941406 21.503906 7.941406 21.609375 C 7.941406 21.714844 7.414062 21.601562 7.335938 21.472656 C 7.261719 21.371094 7.101562 21.546875 7.101562 21.734375 C 7.101562 21.890625 6.933594 21.867188 6.496094 21.632812 C 6.34375 21.539062 6.171875 21.472656 5.992188 21.4375 Z M 16 22.628906 C 16.804688 22.871094 16.941406 22.890625 16.941406 22.769531 C 16.941406 22.699219 16.066406 22.40625 15.363281 22.234375 C 15.566406 22.359375 15.78125 22.488281 16 22.628906 Z M 15.363281 22.234375 C 14.804688 21.898438 14.335938 21.644531 14.167969 21.625 C 13.988281 21.613281 13.808594 21.582031 13.636719 21.53125 C 13.550781 21.484375 13.074219 21.59375 13.074219 21.667969 C 13.074219 21.71875 13.570312 21.835938 15.175781 22.191406 Z M 17.699219 23.734375 C 17.890625 23.863281 18.039062 23.964844 18.070312 23.988281 C 18.101562 24.011719 18.175781 24.066406 18.277344 24.125 L 18.664062 24.140625 C 19.273438 24.167969 19.742188 24.253906 20.347656 24.429688 C 21.257812 24.703125 21.398438 24.730469 21.398438 24.605469 C 21.398438 24.53125 20.359375 24.183594 19.632812 24.023438 C 19.011719 23.894531 18.394531 23.753906 17.777344 23.601562 L 17.703125 23.734375 Z M 18.273438 24.125 C 17.875 24.109375 17.925781 24.125 18.289062 24.210938 L 18.523438 24.269531 Z M 18.523438 24.269531 L 18.625 24.320312 C 18.507812 24.386719 17.898438 24.046875 17.53125 24.046875 L 17.449219 24.203125 C 18.210938 24.398438 19.816406 24.84375 20.585938 25.078125 C 20.667969 25.101562 20.726562 25.078125 20.726562 25.011719 C 20.726562 24.917969 19.566406 24.527344 18.527344 24.269531 Z M 12.75 21.894531 L 12.65625 21.894531 C 12.597656 21.894531 12.542969 21.90625 12.492188 21.925781 C 12.375 21.996094 12.863281 22.097656 13.28125 22.097656 C 13.457031 22.089844 13.503906 22.074219 13.40625 22.023438 C 13.195312 21.941406 12.972656 21.898438 12.746094 21.898438 Z M 4.988281 22.265625 C 4.941406 22.265625 4.929688 22.300781 4.953125 22.351562 C 4.980469 22.390625 5.046875 22.433594 5.089844 22.433594 C 5.140625 22.433594 5.148438 22.390625 5.125 22.351562 C 5.097656 22.300781 5.046875 22.269531 4.988281 22.265625 Z M 5.515625 22.441406 L 5.449219 22.441406 C 5.359375 22.441406 5.332031 22.464844 5.398438 22.492188 C 5.457031 22.515625 5.53125 22.511719 5.558594 22.484375 C 5.582031 22.464844 5.558594 22.449219 5.511719 22.441406 Z M 19.101562 22.78125 C 19.113281 22.78125 19.121094 22.78125 19.132812 22.789062 L 18.890625 22.898438 L 18.867188 22.886719 C 18.722656 22.992188 18.574219 23.136719 18.496094 23.136719 C 18.414062 23.136719 18.664062 22.804688 18.867188 22.886719 C 18.949219 22.824219 19.03125 22.777344 19.101562 22.78125 Z M 14.46875 24.535156 C 14.539062 24.535156 14.570312 24.570312 14.546875 24.621094 C 14.519531 24.664062 14.460938 24.703125 14.410156 24.703125 C 14.367188 24.703125 14.335938 24.664062 14.335938 24.621094 C 14.335938 24.570312 14.390625 24.535156 14.46875 24.535156 Z M 2.066406 25.386719 L 2 25.386719 C 1.90625 25.386719 1.882812 25.410156 1.949219 25.433594 C 2.011719 25.460938 2.085938 25.453125 2.109375 25.429688 C 2.136719 25.410156 2.113281 25.390625 2.058594 25.386719 Z M 2.601562 25.605469 L 2.761719 25.78125 C 2.84375 25.878906 2.996094 25.984375 3.097656 26.007812 C 3.191406 26.042969 3.476562 26.140625 3.710938 26.234375 C 4.074219 26.378906 4.199219 26.386719 4.417969 26.308594 C 4.628906 26.234375 4.71875 26.246094 4.820312 26.328125 C 5.039062 26.492188 5.296875 26.601562 5.570312 26.640625 C 5.6875 26.640625 5.671875 26.605469 5.511719 26.480469 L 5.308594 26.328125 L 5.660156 26.355469 C 5.828125 26.355469 5.996094 26.398438 6.140625 26.480469 C 6.210938 26.53125 6.261719 26.546875 6.261719 26.515625 C 6.261719 26.480469 6.308594 26.488281 6.367188 26.53125 C 6.539062 26.664062 6.839844 26.71875 6.871094 26.613281 C 6.890625 26.558594 7.066406 26.597656 7.359375 26.738281 C 7.863281 26.976562 8.546875 27.144531 9.015625 27.144531 C 9.1875 27.144531 9.597656 27.203125 9.917969 27.28125 C 10.890625 27.5 11.648438 27.640625 12.324219 27.734375 C 12.683594 27.785156 13.191406 27.902344 13.460938 27.996094 C 14.089844 28.214844 14.265625 28.246094 14.210938 28.144531 C 14.175781 28.105469 14.214844 28.070312 14.285156 28.070312 C 14.359375 28.070312 14.417969 28.128906 14.417969 28.195312 C 14.417969 28.273438 14.46875 28.296875 14.5625 28.265625 C 14.65625 28.230469 14.679688 28.238281 14.636719 28.308594 C 14.585938 28.398438 14.679688 28.449219 14.863281 28.414062 C 14.898438 28.414062 14.921875 28.441406 14.921875 28.484375 C 14.921875 28.523438 15.015625 28.574219 15.132812 28.59375 C 15.179688 28.605469 15.234375 28.605469 15.28125 28.601562 L 15.222656 28.59375 L 15.484375 28.058594 C 15.242188 27.929688 14.984375 27.832031 14.71875 27.761719 C 14.4375 27.671875 14.160156 27.5625 13.894531 27.429688 C 13.664062 27.3125 13.484375 27.261719 13.449219 27.3125 C 13.417969 27.363281 13.367188 27.394531 13.308594 27.398438 C 13.25 27.398438 13.257812 27.355469 13.316406 27.28125 C 13.457031 27.113281 12.691406 26.867188 11.933594 26.851562 C 11.113281 26.832031 10.296875 26.710938 9.503906 26.496094 C 8.976562 26.355469 8.65625 26.3125 8.621094 26.371094 C 8.585938 26.421875 8.253906 26.390625 7.648438 26.261719 C 7.140625 26.164062 6.550781 26.050781 6.34375 26.027344 C 6.171875 26.011719 6.003906 25.980469 5.835938 25.933594 C 5.5625 25.886719 5.28125 25.855469 5 25.84375 C 4.339844 25.820312 3.679688 25.761719 3.023438 25.671875 Z M 15.484375 28.058594 L 15.488281 28.0625 C 15.484375 28.222656 15.488281 28.382812 15.496094 28.542969 C 15.46875 28.542969 15.445312 28.539062 15.421875 28.523438 C 15.378906 28.5 15.34375 28.515625 15.34375 28.558594 C 15.34375 28.578125 15.320312 28.59375 15.285156 28.601562 C 15.640625 28.648438 15.992188 28.675781 16.394531 28.691406 C 17.152344 28.707031 17.917969 28.949219 17.773438 29.117188 C 17.714844 29.191406 17.707031 29.234375 17.765625 29.234375 C 17.824219 29.234375 17.878906 29.203125 17.910156 29.152344 C 17.941406 29.101562 18.121094 29.152344 18.355469 29.269531 C 18.574219 29.378906 18.945312 29.53125 19.179688 29.59375 C 19.710938 29.746094 20.136719 29.96875 20.136719 30.078125 C 20.136719 30.117188 20.199219 30.136719 20.265625 30.109375 C 20.332031 30.078125 20.390625 30.101562 20.390625 30.152344 C 20.390625 30.269531 19.988281 30.4375 19.878906 30.363281 C 19.835938 30.335938 19.800781 30.355469 19.800781 30.394531 C 19.800781 30.4375 19.710938 30.453125 19.59375 30.429688 C 19.476562 30.414062 19.382812 30.363281 19.382812 30.320312 C 19.382812 30.277344 19.359375 30.253906 19.324219 30.253906 C 19.136719 30.289062 19.046875 30.234375 19.097656 30.140625 C 19.136719 30.078125 19.113281 30.066406 19.023438 30.101562 C 18.925781 30.136719 18.878906 30.109375 18.878906 30.035156 C 18.878906 29.96875 18.816406 29.910156 18.742188 29.910156 C 18.675781 29.910156 18.632812 29.941406 18.667969 29.984375 C 18.726562 30.085938 18.550781 30.050781 17.917969 29.832031 C 17.546875 29.714844 17.167969 29.628906 16.78125 29.574219 C 16.15625 29.480469 15.535156 29.371094 14.917969 29.234375 C 14.167969 30.824219 13.453125 32.433594 12.796875 34.066406 C 9.398438 40.285156 4.703125 41.042969 4.703125 41.042969 L 4.703125 47.234375 C 8.496094 47.226562 12.289062 47.210938 16.078125 47.195312 C 15.476562 40.933594 19.515625 34.609375 25.460938 32.539062 C 25.304688 32.460938 25.160156 32.375 25.015625 32.28125 C 24.859375 32.171875 24.65625 32.105469 24.574219 32.128906 C 24.472656 32.15625 24.160156 32.011719 23.765625 31.765625 C 23.515625 31.609375 23.257812 31.457031 23 31.3125 C 22.566406 31.0625 22.144531 30.789062 21.738281 30.496094 C 21.9375 30.496094 22.988281 30.875 23.460938 31.121094 C 23.789062 31.289062 24.136719 31.421875 24.238281 31.421875 C 24.410156 31.449219 24.570312 31.511719 24.714844 31.609375 C 24.882812 31.71875 25.261719 31.953125 25.554688 32.136719 C 25.695312 32.222656 25.824219 32.304688 25.921875 32.371094 C 26.269531 32.253906 26.628906 32.148438 26.984375 32.058594 C 26.785156 31.96875 26.375 31.769531 25.941406 31.566406 C 25.410156 31.304688 24.859375 31.074219 24.300781 30.875 C 23.882812 30.734375 23.472656 30.558594 23.082031 30.34375 C 22.800781 30.1875 22.511719 30.035156 22.226562 29.890625 C 21.992188 29.78125 21.765625 29.652344 21.550781 29.511719 C 21.359375 29.386719 21.164062 29.269531 20.960938 29.167969 C 20.796875 29.101562 20.746094 29.03125 20.789062 28.933594 C 20.828125 28.824219 20.8125 28.808594 20.71875 28.863281 C 20.546875 28.976562 20.417969 28.976562 20.140625 28.890625 L 19.625 28.738281 C 19.414062 28.671875 19.375 28.679688 19.398438 28.78125 C 19.425781 28.898438 20.121094 29.203125 20.515625 29.265625 C 20.683594 29.292969 21.039062 29.480469 21.566406 29.824219 C 21.730469 29.921875 21.789062 29.984375 21.695312 29.949219 C 21.472656 29.875 21.25 29.808594 21.023438 29.75 C 20.089844 29.449219 19.175781 29.089844 18.289062 28.679688 C 17.144531 28.175781 16.875 28.089844 16.058594 28.015625 C 15.886719 27.992188 15.714844 27.96875 15.546875 27.933594 Z M 16.535156 25.953125 L 16.425781 26.164062 C 16.589844 26.238281 16.882812 26.246094 16.917969 26.15625 C 16.933594 26.105469 16.832031 26.039062 16.691406 26.011719 C 16.636719 26 16.585938 25.980469 16.535156 25.953125 Z M 20.359375 30.335938 C 20.433594 30.335938 20.585938 30.398438 20.980469 30.527344 C 21.511719 30.710938 21.894531 30.914062 23.460938 31.851562 C 23.601562 31.933594 23.824219 32.101562 23.957031 32.21875 L 24.199219 32.429688 L 23.976562 32.429688 C 23.613281 32.429688 21.949219 31.511719 21.949219 31.308594 C 21.949219 31.261719 21.878906 31.203125 21.789062 31.183594 C 21.6875 31.160156 21.652344 31.183594 21.695312 31.253906 C 21.746094 31.328125 21.710938 31.328125 21.578125 31.261719 C 21.375 31.148438 21.332031 31.039062 21.527344 31.117188 C 21.59375 31.140625 21.652344 31.125 21.652344 31.082031 C 21.652344 31.03125 21.578125 30.996094 21.484375 30.996094 C 21.390625 30.996094 21.316406 30.957031 21.316406 30.914062 C 21.316406 30.863281 21.265625 30.828125 21.214844 30.828125 C 21.0625 30.792969 20.910156 30.734375 20.769531 30.664062 C 20.628906 30.589844 20.476562 30.53125 20.324219 30.492188 C 20.265625 30.492188 20.238281 30.453125 20.265625 30.410156 C 20.296875 30.359375 20.300781 30.335938 20.359375 30.335938 Z M 20.359375 30.335938 "/>
</g>
</svg>
